<?xml version="1.0" ?><!-- Uploaded to: SVG Repo, www.svgrepo.com, Generator: SVG Repo Mixer Tools -->
<svg fill="#2EC4B6" width="800px" height="800px" viewBox="0 0 100 100" enable-background="new 0 0 100 100" id="Layer_1" version="1.1" xml:space="preserve" xmlns="http://www.w3.org/2000/svg" xmlns:xlink="http://www.w3.org/1999/xlink"><path d="M94.022,28.855H77.804v-2.613c0-0.541-0.438-0.978-0.978-0.978h-4.258c-1.362-4.699-5.735-8.034-10.696-8.034  c-2.766,0-5.373,1.007-7.427,2.851c-3.255-2.017-7.49-2.193-10.926-0.434c-2.119-2.367-5.094-3.709-8.286-3.709  c-3.345,0-6.494,1.502-8.6,4.061c-1.735-1.038-3.689-1.583-5.701-1.583c-4.52,0-8.563,2.726-10.28,6.848H5.978  C5.438,25.264,5,25.701,5,26.242v17.326c0,13.029,6.949,24.466,17.336,30.799c-10.122,1.427-10.124,3.474-10.124,4.275  c0,5.358,27.999,5.421,29.191,5.421s29.19-0.062,29.19-5.421c0-0.801-0.002-2.849-10.124-4.276  c5.981-3.647,10.819-8.987,13.85-15.348h6.023c8.083,0,14.66-6.57,14.66-14.646V29.833C95,29.292,94.562,28.855,94.022,28.855z   M77.804,35.095h10.785v7.972c0,5.274-4.291,9.566-9.567,9.566h-2.374c0.753-2.898,1.156-5.935,1.156-9.065V35.095z M11.735,35.536  c2.462-1.271,14.421-6.633,29.253,0.305c5.957,2.786,11.436,3.717,16.101,3.716c6.649,0,11.629-1.888,13.98-2.994v6.649  c0,16.358-13.309,29.667-29.667,29.667c-16.359,0-29.667-13.309-29.667-29.667V35.536z M71.069,34.374  c-2.455,1.275-14.381,6.653-29.252-0.306c-14.439-6.755-26.077-2.607-30.082-0.724V27.22h59.334V34.374z M20.932,20.372  c1.917,0,3.772,0.602,5.361,1.741c0.214,0.154,0.481,0.213,0.738,0.169c0.259-0.046,0.488-0.193,0.637-0.409  c1.714-2.492,4.542-3.979,7.564-3.979c2.863,0,5.516,1.312,7.279,3.6c0.305,0.396,0.858,0.498,1.284,0.238  c1.457-0.889,3.117-1.359,4.802-1.359c1.94,0,3.801,0.606,5.383,1.751c0.396,0.286,0.94,0.24,1.277-0.113  c1.761-1.822,4.109-2.825,6.613-2.825c3.895,0,7.354,2.491,8.645,6.071H12.809C14.379,22.287,17.49,20.372,20.932,20.372z   M58.155,76.041c7.541,0.881,10.011,2.107,10.44,2.602c-0.968,1.221-9.836,3.462-27.193,3.462c-17.357,0-26.225-2.241-27.194-3.462  c0.429-0.496,2.899-1.722,10.44-2.602c0.162-0.019,0.302-0.085,0.428-0.17c4.817,2.391,10.237,3.742,15.969,3.742h0.712  c5.732,0,11.153-1.351,15.969-3.742C57.853,75.957,57.993,76.023,58.155,76.041z M41.758,77.657h-0.712  c-18.797,0-34.089-15.292-34.089-34.089V27.22h2.822v15.992c0,17.438,14.186,31.623,31.624,31.623S73.025,60.65,73.025,43.212V27.22  h2.822v2.589c0,0.008-0.005,0.015-0.005,0.024c0,0.008,0.005,0.015,0.005,0.024v4.236c0,0.008-0.005,0.015-0.005,0.024  s0.005,0.015,0.005,0.024v9.427C75.847,62.365,60.555,77.657,41.758,77.657z M93.043,44.372c0,6.997-5.699,12.69-12.703,12.69  h-5.167c0.328-0.81,0.631-1.634,0.901-2.472h2.948c6.354,0,11.523-5.169,11.523-11.522v-8.951c0-0.541-0.438-0.978-0.978-0.978  H77.804v-2.327h15.239V44.372z"/></svg>