<?xml version="1.0" encoding="utf-8"?>

<!DOCTYPE svg PUBLIC "-//W3C//DTD SVG 1.1//EN" "http://www.w3.org/Graphics/SVG/1.1/DTD/svg11.dtd">
<!-- Uploaded to: SVG Repo, www.svgrepo.com, Generator: SVG Repo Mixer Tools -->
<svg height="800px" width="800px" version="1.1" id="_x32_" xmlns="http://www.w3.org/2000/svg" xmlns:xlink="http://www.w3.org/1999/xlink" 
	 viewBox="0 0 512 512"  xml:space="preserve">
<style type="text/css">
	.st0{fill:#2EC4B6;}
</style>
<g>
	<path class="st0" d="M511.06,166.175c-2.713-17.466-11.377-32.603-23.571-42.68c-12.145-10.134-27.38-15.291-42.704-15.267
		c-7.07-0.016-14.181,1.111-21.096,3.286C410.9,67.28,344.167,45.148,232.442,45.148c-128.255,0-197.248,29.153-193.362,87.468
		c1.908,28.63,11.797,84.754,38.36,136.293c-11.41,4.112-22.182,9.26-31.896,15.496c-11.565,7.454-21.716,16.387-29.619,26.898
		C8.034,321.797,2.411,334,0.548,347.338C0.184,349.913,0,352.512,0,355.102c-0.003,8.075,1.758,16.076,4.941,23.604
		c5.598,13.199,15.312,25.001,28.192,35.463c19.375,15.684,46.121,28.63,79.982,37.915c33.868,9.268,74.897,14.76,122.84,14.768
		c72.724-0.041,129.706-12.643,169.893-32.055c20.081-9.75,36.068-21.225,47.558-34.384c5.738-6.603,10.348-13.648,13.568-21.16
		c3.22-7.503,5.002-15.504,5.002-23.571c0-1.773-0.082-3.538-0.262-5.304c-1.307-13.674-6.652-26.301-14.416-37.138
		c-11.688-16.289-28.639-28.998-48.172-38.266c-6.587-3.106-13.502-5.779-20.628-8.067c1.193-2.354,2.37-4.716,3.498-7.078
		c10.037,3.89,20.367,5.795,30.388,5.77c12.292,0,24.062-2.722,34.654-7.38c15.896-7.012,29.284-18.201,39.043-31.964
		c9.701-13.764,15.896-30.379,15.921-48.262C512,174.086,511.698,170.13,511.06,166.175z M232.442,85.948
		c76.213,0,137.985,15.676,137.985,34.989c0,19.321-61.772,34.981-137.985,34.981c-76.197,0-137.969-15.66-137.969-34.981
		C94.472,101.624,156.244,85.948,232.442,85.948z M408.39,314.564c8.696,5.762,15.676,12.325,20.449,19.002
		c4.789,6.743,7.397,13.428,8.059,20.196c0.065,0.63,0.098,1.276,0.098,1.921c0,2.959-0.621,6.155-2.183,9.8
		c-2.688,6.366-8.492,14.049-18.111,21.741c-14.36,11.58-37.04,22.974-67.387,31.188c-30.346,8.263-68.326,13.469-113.36,13.461
		c-68.944,0.041-121.19-12.218-154.806-28.695c-16.812-8.189-28.887-17.425-36.227-26.006c-3.69-4.282-6.199-8.369-7.751-12.055
		c-1.558-3.702-2.183-6.98-2.196-10.012c0-0.981,0.074-1.937,0.205-2.893c0.952-6.702,3.788-13.314,8.716-19.902
		c7.335-9.832,19.521-19.23,34.666-26.178c5.431-2.5,11.311-4.577,17.351-6.407c6.505,9.292,13.632,18.226,21.585,26.472
		c8.046,8.352,15.582,15.03,22.946,20.506c-7.593,4.446-11.97,9.44-11.97,14.727c0,18.512,52.201,33.526,116.6,33.526
		c64.404,0,116.597-15.014,116.597-33.526c0-8.361-10.707-15.978-28.295-21.854c4.536-3.94,9.187-8.369,14.025-13.379
		c8.443-8.762,15.978-18.275,22.787-28.205C384.526,301.732,397.733,307.478,408.39,314.564z M462.071,192.246
		c-3.269,7.25-9.162,14.262-16.322,19.117c-7.176,4.903-15.332,7.608-23.367,7.601c-4.348-0.025-8.762-0.85-13.372-2.624
		c5.264-16.517,9.13-32.374,11.802-46.48c3.269-5.15,6.93-8.664,10.625-10.993c4.479-2.811,9.089-3.996,13.347-4.004
		c5.026,0.016,9.44,1.626,12.839,4.454c3.351,2.893,6.146,6.914,7.388,14.221c0.23,1.471,0.344,2.958,0.344,4.455
		C465.357,182.562,464.278,187.416,462.071,192.246z"/>
</g>
</svg>