<?xml version="1.0" encoding="iso-8859-1"?>
<!-- Uploaded to: SVG Repo, www.svgrepo.com, Generator: SVG Repo Mixer Tools -->
<svg version="1.1" id="Layer_1" xmlns="http://www.w3.org/2000/svg" xmlns:xlink="http://www.w3.org/1999/xlink" 
	 viewBox="0 0 512 512" xml:space="preserve">
<circle style="fill:#2EC4B6;" cx="256" cy="256" r="256"/>
<path style="fill:#269f93" d="M377.669,232.187c-4.314-4.355-10.092-6.766-16.238-6.766h-1.905l-17.879-17.882h-53.194
	l-76.196-76.214c0,0,0,0-0.036,0.036c-0.113,0.074-0.33,0.22-0.73,0.438c-0.379,0.218-0.896,0.573-1.462,0.988l-31.491-31.485
	c0,0-0.402,0.218-1.101,0.653c-0.727,0.407-1.715,1.096-2.959,2.051c-1.208,0.986-2.668,2.23-4.093,3.912
	c-1.462,1.72-2.964,3.876-4.173,6.51c-1.17,2.634-1.974,5.85-2.194,9.213c-0.108,1.72-0.038,3.441,0.146,5.197
	c0.148,1.754,0.479,3.512,0.916,5.225c0.842,3.438,2.086,6.802,3.551,10.022c1.462,3.182,3.069,6.292,4.721,9.213
	c1.603,3.003,3.251,5.852,4.751,8.596c1.459,2.816,2.778,5.486,3.837,8.084c0.512,1.313,0.952,2.598,1.354,3.843
	c0.366,1.242,0.622,2.486,0.801,3.689c0.225,1.208,0.33,2.412,0.33,3.581c0.044,0.586-0.036,1.134-0.036,1.723
	c-0.036,0.584-0.069,1.132-0.148,1.679c-0.256,2.194-0.837,4.28-1.462,6.111c-0.66,1.861-1.426,3.433-2.051,4.79
	c-0.653,1.313-1.17,2.373-1.605,3.069c-0.404,0.73-0.586,1.137-0.586,1.137l7.936,7.936h-35.474v124.05
	c0,1.096,0.036,2.158,0.148,3.254l0.005,0.008c0.727,7.844,4.078,15.493,10.084,21.496l149.678,149.683
	c84.188-18.409,152.832-78.216,183.585-157.03L377.669,232.187z"/>
<path style="fill:#34495E;" d="M341.647,331.589c0,8.965-3.412,17.928-10.255,24.758c-6.84,6.848-15.795,10.26-24.755,10.26H185.994
	c-8.955,0-17.92-3.412-24.753-10.26c-6.84-6.83-10.26-15.793-10.26-24.758V207.555h190.666V331.589z"/>
<path style="fill:#5D7D99;" d="M185.994,344.284c-3.382,0-6.569-1.326-8.96-3.715c-2.409-2.404-3.73-5.596-3.73-8.98V207.575
	c0-0.005-0.01-0.013-0.01-0.02h-12.739c0,0.008-0.013,0.015-0.013,0.02v124.014c0,6.792,2.652,13.189,7.468,17.999
	c4.8,4.8,11.187,7.444,17.981,7.444c3.528,0,6.38-2.852,6.38-6.369C192.374,347.133,189.524,344.284,185.994,344.284z"/>
<path style="fill:#283A4D;" d="M361.418,312.85h-19.771v-13.135h19.771c2.639,0,5.12-1.019,6.986-2.89
	c1.841-1.866,2.88-4.332,2.88-6.981v-41.408c0-2.637-1.039-5.11-2.88-6.973c-1.866-1.869-4.347-2.888-6.986-2.888h-19.771v-13.146
	h19.771c6.152,0,11.924,2.399,16.271,6.74c4.339,4.347,6.728,10.117,6.728,16.266v41.408c0,6.152-2.388,11.927-6.728,16.271
	C373.343,310.464,367.57,312.85,361.418,312.85z"/>
<g>
	<path style="fill:#FFFFFF;" d="M178.547,199.603c0,0,0.187-0.399,0.581-1.121c0.428-0.707,0.937-1.779,1.61-3.072
		c0.612-1.352,1.377-2.936,2.03-4.79c0.632-1.843,1.206-3.912,1.475-6.124c0.064-0.548,0.108-1.106,0.159-1.687
		c0-0.561,0.059-1.134,0.033-1.72c0-1.16-0.125-2.355-0.32-3.566c-0.207-1.203-0.453-2.452-0.832-3.697
		c-0.387-1.257-0.824-2.542-1.334-3.84c-1.047-2.606-2.388-5.292-3.863-8.077c-1.487-2.767-3.11-5.627-4.754-8.589
		c-1.623-2.957-3.246-6.039-4.695-9.234c-1.449-3.21-2.703-6.577-3.558-10.028c-0.425-1.713-0.75-3.469-0.919-5.212
		c-0.174-1.748-0.238-3.497-0.133-5.187c0.218-3.389,1.019-6.584,2.204-9.219c1.196-2.647,2.675-4.79,4.152-6.508
		c1.444-1.69,2.89-2.949,4.109-3.937c1.247-0.947,2.235-1.628,2.949-2.035c0.709-0.435,1.108-0.653,1.108-0.653
		s-0.218,0.387-0.596,1.124c-0.415,0.696-0.942,1.766-1.6,3.077c-0.645,1.339-1.413,2.929-2.043,4.785
		c-0.632,1.851-1.201,3.904-1.472,6.131c-0.074,0.54-0.102,1.096-0.161,1.656c0,0.596-0.061,1.152-0.018,1.728
		c0,1.172,0.12,2.358,0.317,3.581c0.218,1.208,0.461,2.445,0.837,3.694c0.392,1.244,0.829,2.542,1.336,3.843
		c1.044,2.598,2.386,5.292,3.873,8.061c1.49,2.772,3.098,5.64,4.741,8.604c1.641,2.97,3.259,6.039,4.698,9.249
		c1.462,3.21,2.711,6.546,3.561,10.004c0.428,1.746,0.722,3.471,0.929,5.225c0.143,1.738,0.233,3.487,0.115,5.181
		c-0.238,3.405-1.039,6.584-2.222,9.219c-1.19,2.655-2.691,4.797-4.134,6.49c-1.454,1.71-2.916,2.972-4.129,3.953
		c-1.242,0.97-2.248,1.638-2.949,2.043C178.916,199.38,178.547,199.603,178.547,199.603z"/>
	<path style="fill:#FFFFFF;" d="M212.244,199.603c0,0,0.141-0.276,0.422-0.778c0.274-0.492,0.668-1.231,1.111-2.13
		c0.443-0.945,0.98-2.035,1.411-3.336c0.443-1.272,0.84-2.719,1.029-4.25c0.046-0.387,0.074-0.773,0.108-1.165
		c0-0.394,0.044-0.788,0.008-1.198c0-0.804-0.074-1.633-0.205-2.476c-0.143-0.842-0.323-1.7-0.573-2.56
		c-0.276-0.886-0.579-1.774-0.937-2.678c-0.724-1.805-1.656-3.674-2.683-5.604c-1.032-1.91-2.156-3.904-3.302-5.967
		c-1.124-2.053-2.25-4.188-3.259-6.415c-1.004-2.24-1.866-4.564-2.465-6.953c-0.302-1.208-0.527-2.417-0.64-3.628
		c-0.12-1.219-0.182-2.427-0.1-3.607c0.156-2.353,0.709-4.557,1.531-6.392c0.835-1.846,1.866-3.336,2.877-4.524
		c1.004-1.18,2.02-2.053,2.87-2.732c0.842-0.66,1.541-1.124,2.043-1.421c0.499-0.307,0.75-0.453,0.75-0.453
		s-0.133,0.266-0.404,0.781c-0.284,0.484-0.643,1.229-1.106,2.135c-0.456,0.942-0.98,2.035-1.418,3.323
		c-0.445,1.285-0.829,2.711-1.029,4.262c-0.044,0.366-0.064,0.773-0.102,1.16c0,0.399-0.051,0.794-0.015,1.206
		c0,0.796,0.082,1.626,0.212,2.465c0.148,0.85,0.323,1.71,0.584,2.573c0.274,0.863,0.576,1.761,0.934,2.668
		c0.732,1.805,1.651,3.666,2.683,5.599c1.016,1.935,2.173,3.909,3.3,5.972c1.119,2.061,2.263,4.201,3.274,6.431
		c0.991,2.22,1.871,4.544,2.458,6.945c0.287,1.208,0.512,2.417,0.643,3.628c0.102,1.219,0.159,2.419,0.074,3.599
		c-0.161,2.368-0.709,4.58-1.539,6.403c-0.824,1.843-1.871,3.325-2.862,4.506c-1.014,1.185-2.028,2.066-2.877,2.747
		c-0.855,0.673-1.546,1.134-2.043,1.426C212.511,199.45,212.244,199.603,212.244,199.603z"/>
</g>
<rect x="185.984" y="366.618" style="fill:#283A4D;" width="120.169" height="8.983"/>
</svg>