<?xml version="1.0" encoding="utf-8"?>
<!-- Uploaded to: SVG Repo, www.svgrepo.com, Generator: SVG Repo Mixer Tools -->
<svg fill="#2EC4B6" width="800px" height="800px" viewBox="0 0 32 32" version="1.1" xmlns="http://www.w3.org/2000/svg">
<title>coffee-mug</title>
<path d="M28.19 9.614c-0.864-0.515-1.859-0.596-3.051-0.373l-0 0c-0.769 0.144-1.605 0.44-2.501 0.891 0.013-0.313 0.020-0.623 0.020-0.928h-0.010c0.027-0.14 0.041-0.282 0.041-0.425 0-2.421-3.958-4.383-8.84-4.383s-8.84 1.963-8.84 4.383c0 0.143 0.014 0.285 0.041 0.425h-0.005c-0.034 5.090 1.014 10.19 0.933 15.275-0.039 2.419 2.969 4.343 7.848 4.343s7.3-1.97 7.3-4.343c0-0.323 0.006-0.646 0.017-0.971 2.561 0.138 4.707-1.032 6.212-2.675 1.564-1.706 2.522-3.908 2.768-5.973s-0.209-4.217-1.936-5.247zM13.883 6.867c3.725 0 6.744 1.022 6.744 2.282 0 0.018-0.001 0.037-0.002 0.055v0c-0.001 0.019-0.003 0.038-0.006 0.057 0 0 0 0-0 0-0.003 0.018-0.006 0.035-0.010 0.053-0 0.002-0.001 0.003-0.001 0.005-0.004 0.017-0.008 0.033-0.013 0.049-0.001 0.003-0.001 0.005-0.002 0.008-0.005 0.016-0.010 0.031-0.015 0.047-0.001 0.003-0.002 0.007-0.003 0.010-0.006 0.015-0.012 0.030-0.018 0.045-0.002 0.004-0.003 0.008-0.005 0.012-0.006 0.014-0.013 0.029-0.021 0.043-0.002 0.004-0.004 0.009-0.006 0.013-0.007 0.014-0.015 0.028-0.023 0.041-0.003 0.005-0.005 0.009-0.008 0.014-0.008 0.013-0.017 0.027-0.025 0.040-0.003 0.005-0.006 0.010-0.010 0.015-0.009 0.013-0.018 0.026-0.028 0.039-0.004 0.005-0.007 0.010-0.011 0.016-0.010 0.013-0.020 0.025-0.030 0.038-0.004 0.005-0.008 0.011-0.013 0.016-0.010 0.012-0.021 0.025-0.032 0.037-0.005 0.005-0.009 0.011-0.014 0.016-0.011 0.012-0.023 0.024-0.034 0.036-0.005 0.006-0.011 0.011-0.016 0.017-0.012 0.012-0.024 0.024-0.036 0.035-0.006 0.006-0.012 0.011-0.018 0.017-0.012 0.012-0.025 0.023-0.038 0.034-0.007 0.006-0.013 0.012-0.020 0.017-0.013 0.011-0.026 0.023-0.040 0.034-0.007 0.006-0.014 0.012-0.021 0.018-0.014 0.011-0.028 0.022-0.042 0.033-0.008 0.006-0.015 0.012-0.023 0.018-0.014 0.011-0.029 0.022-0.044 0.032-0.008 0.006-0.016 0.012-0.024 0.018-0.015 0.011-0.030 0.021-0.045 0.031-0.009 0.006-0.017 0.012-0.026 0.018-0.015 0.010-0.031 0.020-0.047 0.031-0.009 0.006-0.019 0.012-0.028 0.018-0.016 0.010-0.032 0.020-0.048 0.030-0.010 0.006-0.020 0.012-0.030 0.018-0.016 0.010-0.033 0.020-0.050 0.029-0.010 0.006-0.021 0.012-0.031 0.018-0.017 0.010-0.034 0.019-0.052 0.029-0.011 0.006-0.022 0.012-0.033 0.018-0.017 0.009-0.035 0.019-0.053 0.028-0.012 0.006-0.023 0.012-0.035 0.018-0.018 0.009-0.036 0.018-0.055 0.027-0.012 0.006-0.024 0.012-0.036 0.018-0.019 0.009-0.037 0.018-0.056 0.027-0.013 0.006-0.025 0.012-0.038 0.018-0.019 0.009-0.038 0.017-0.058 0.026-0.013 0.006-0.026 0.012-0.040 0.017-0.019 0.008-0.039 0.017-0.059 0.025-0.014 0.006-0.028 0.012-0.041 0.017-0.020 0.008-0.040 0.016-0.060 0.025-0.014 0.006-0.029 0.011-0.043 0.017-0.020 0.008-0.041 0.016-0.062 0.024-0.015 0.006-0.029 0.011-0.044 0.017-0.021 0.008-0.042 0.016-0.063 0.023-0.015 0.006-0.031 0.011-0.046 0.017-0.021 0.008-0.042 0.015-0.064 0.023-0.016 0.006-0.032 0.011-0.048 0.017-0.021 0.007-0.043 0.015-0.065 0.022-0.016 0.005-0.033 0.011-0.049 0.016-0.022 0.007-0.044 0.014-0.066 0.021-0.017 0.005-0.034 0.011-0.051 0.016-0.022 0.007-0.044 0.014-0.067 0.021-0.018 0.005-0.035 0.011-0.053 0.016-0.022 0.007-0.045 0.013-0.068 0.020-0.018 0.005-0.036 0.010-0.054 0.015-0.023 0.006-0.046 0.013-0.069 0.019-0.019 0.005-0.037 0.010-0.056 0.015-0.023 0.006-0.046 0.012-0.069 0.018-0.019 0.005-0.038 0.010-0.058 0.015-0.023 0.006-0.047 0.012-0.071 0.018-0.019 0.005-0.039 0.010-0.059 0.014-0.024 0.006-0.048 0.012-0.072 0.017-0.020 0.005-0.040 0.009-0.060 0.014-0.024 0.006-0.048 0.011-0.072 0.017-0.020 0.005-0.041 0.009-0.062 0.014-0.024 0.005-0.048 0.011-0.073 0.016-0.021 0.005-0.042 0.009-0.063 0.013-0.025 0.005-0.049 0.010-0.074 0.015-0.021 0.004-0.043 0.009-0.064 0.013-0.025 0.005-0.050 0.010-0.075 0.015-0.022 0.004-0.044 0.008-0.065 0.012-0.025 0.005-0.050 0.009-0.076 0.014-0.022 0.004-0.045 0.008-0.067 0.012-0.025 0.005-0.051 0.009-0.076 0.013-0.023 0.004-0.046 0.008-0.069 0.012-0.025 0.004-0.051 0.008-0.077 0.013-0.023 0.004-0.047 0.007-0.070 0.011-0.026 0.004-0.052 0.008-0.078 0.012-0.024 0.004-0.047 0.007-0.071 0.011-0.026 0.004-0.052 0.008-0.078 0.011-0.024 0.003-0.049 0.007-0.073 0.010-0.026 0.004-0.052 0.007-0.078 0.011-0.025 0.003-0.050 0.006-0.075 0.010-0.026 0.003-0.052 0.007-0.079 0.010-0.025 0.003-0.050 0.006-0.075 0.009-0.026 0.003-0.053 0.006-0.079 0.009-0.025 0.003-0.051 0.006-0.076 0.008-0.027 0.003-0.053 0.006-0.080 0.009-0.026 0.003-0.052 0.005-0.077 0.008-0.027 0.003-0.054 0.005-0.081 0.008-0.026 0.002-0.052 0.005-0.078 0.007-0.027 0.002-0.054 0.005-0.082 0.007s-0.054 0.004-0.081 0.007c-0.027 0.002-0.053 0.004-0.080 0.007s-0.056 0.004-0.084 0.006c-0.026 0.002-0.052 0.004-0.079 0.006-0.028 0.002-0.057 0.004-0.085 0.006-0.026 0.002-0.053 0.003-0.079 0.005-0.029 0.002-0.058 0.003-0.088 0.005-0.026 0.001-0.052 0.003-0.078 0.004-0.030 0.002-0.060 0.003-0.090 0.004-0.026 0.001-0.051 0.002-0.077 0.004-0.030 0.001-0.061 0.002-0.091 0.004-0.026 0.001-0.051 0.002-0.077 0.003-0.031 0.001-0.062 0.002-0.093 0.003-0.026 0.001-0.051 0.002-0.077 0.002-0.032 0.001-0.064 0.001-0.097 0.002-0.025 0.001-0.049 0.001-0.074 0.002-0.038 0.001-0.075 0.001-0.113 0.001-0.020 0-0.039 0.001-0.059 0.001-0.056 0-0.113 0.001-0.169 0.001-0.001 0-0.002 0-0.003 0-0.058 0-0.115-0-0.173-0.001-0.017-0-0.034-0-0.051-0.001-0.040-0-0.081-0.001-0.121-0.002-0.022-0-0.044-0.001-0.066-0.001-0.035-0.001-0.070-0.001-0.104-0.002-0.023-0.001-0.046-0.001-0.070-0.002-0.033-0.001-0.067-0.002-0.1-0.003-0.023-0.001-0.046-0.002-0.069-0.003-0.033-0.001-0.066-0.002-0.099-0.004-0.023-0.001-0.046-0.002-0.069-0.003-0.033-0.002-0.065-0.003-0.098-0.005-0.023-0.001-0.046-0.003-0.070-0.004-0.032-0.002-0.064-0.003-0.096-0.005-0.024-0.001-0.047-0.003-0.071-0.005-0.031-0.002-0.062-0.004-0.093-0.006-0.024-0.002-0.047-0.003-0.071-0.005-0.031-0.002-0.062-0.004-0.092-0.007-0.024-0.002-0.048-0.004-0.072-0.006-0.030-0.002-0.059-0.005-0.089-0.007-0.025-0.002-0.049-0.004-0.073-0.007-0.029-0.003-0.058-0.005-0.087-0.008-0.024-0.002-0.048-0.005-0.072-0.007-0.029-0.003-0.057-0.006-0.086-0.009-0.024-0.002-0.048-0.005-0.072-0.008-0.028-0.003-0.057-0.006-0.085-0.009-0.024-0.003-0.047-0.006-0.071-0.008-0.028-0.003-0.056-0.007-0.084-0.010-0.023-0.003-0.047-0.006-0.070-0.009-0.028-0.004-0.056-0.007-0.083-0.011-0.023-0.003-0.046-0.006-0.069-0.009-0.027-0.004-0.055-0.007-0.082-0.011-0.023-0.003-0.046-0.007-0.069-0.010-0.027-0.004-0.053-0.008-0.080-0.012-0.023-0.004-0.046-0.007-0.069-0.011-0.026-0.004-0.053-0.008-0.079-0.012-0.023-0.004-0.045-0.007-0.068-0.011-0.026-0.004-0.052-0.009-0.078-0.013-0.023-0.004-0.045-0.008-0.067-0.012-0.026-0.005-0.051-0.009-0.076-0.014-0.022-0.004-0.045-0.008-0.067-0.012-0.025-0.005-0.050-0.009-0.074-0.014-0.022-0.004-0.044-0.009-0.066-0.013-0.025-0.005-0.049-0.010-0.073-0.015-0.022-0.004-0.043-0.009-0.065-0.013-0.024-0.005-0.049-0.010-0.072-0.015-0.021-0.005-0.043-0.009-0.064-0.014-0.024-0.005-0.047-0.010-0.071-0.016-0.021-0.005-0.042-0.010-0.064-0.015-0.023-0.005-0.046-0.011-0.069-0.016-0.021-0.005-0.042-0.010-0.063-0.015-0.023-0.006-0.045-0.011-0.068-0.017-0.021-0.005-0.041-0.010-0.061-0.016-0.022-0.006-0.045-0.012-0.067-0.017-0.020-0.005-0.040-0.011-0.060-0.016-0.022-0.006-0.044-0.012-0.065-0.018-0.020-0.006-0.040-0.011-0.060-0.017-0.021-0.006-0.042-0.012-0.063-0.018-0.020-0.006-0.039-0.011-0.059-0.017-0.021-0.006-0.042-0.012-0.062-0.019-0.019-0.006-0.038-0.012-0.058-0.018-0.020-0.006-0.040-0.013-0.060-0.019s-0.038-0.012-0.057-0.018c-0.020-0.006-0.039-0.013-0.059-0.019s-0.037-0.013-0.056-0.019c-0.019-0.007-0.038-0.013-0.057-0.020s-0.036-0.013-0.055-0.019c-0.019-0.007-0.037-0.013-0.055-0.020s-0.036-0.013-0.054-0.020c-0.018-0.007-0.036-0.014-0.053-0.020s-0.035-0.014-0.053-0.021c-0.018-0.007-0.035-0.014-0.052-0.021s-0.034-0.014-0.051-0.021c-0.017-0.007-0.034-0.014-0.050-0.021s-0.034-0.014-0.050-0.021c-0.016-0.007-0.032-0.014-0.049-0.021s-0.033-0.015-0.049-0.022c-0.016-0.007-0.031-0.014-0.047-0.022s-0.032-0.015-0.048-0.023c-0.015-0.007-0.030-0.015-0.045-0.022s-0.031-0.015-0.046-0.023c-0.015-0.007-0.029-0.015-0.044-0.022s-0.030-0.015-0.044-0.023c-0.014-0.008-0.028-0.015-0.042-0.023s-0.029-0.016-0.043-0.024c-0.013-0.008-0.027-0.015-0.040-0.023s-0.028-0.016-0.042-0.024c-0.013-0.008-0.026-0.015-0.038-0.023s-0.027-0.016-0.040-0.025c-0.012-0.008-0.024-0.016-0.037-0.023s-0.026-0.017-0.039-0.025c-0.012-0.008-0.023-0.016-0.035-0.024-0.013-0.009-0.025-0.017-0.037-0.026-0.011-0.008-0.022-0.016-0.032-0.024-0.012-0.009-0.024-0.018-0.036-0.026-0.010-0.008-0.021-0.016-0.031-0.024-0.011-0.009-0.023-0.018-0.034-0.027-0.010-0.008-0.019-0.016-0.029-0.024-0.011-0.009-0.022-0.018-0.032-0.027-0.009-0.008-0.018-0.016-0.027-0.024-0.010-0.009-0.021-0.018-0.030-0.028-0.009-0.008-0.017-0.016-0.025-0.024-0.010-0.009-0.019-0.019-0.029-0.028-0.008-0.008-0.016-0.016-0.023-0.024-0.009-0.010-0.018-0.019-0.027-0.029-0.007-0.008-0.014-0.016-0.021-0.024-0.008-0.010-0.017-0.019-0.025-0.029-0.007-0.008-0.013-0.016-0.020-0.024-0.008-0.010-0.016-0.020-0.023-0.030-0.006-0.008-0.012-0.017-0.018-0.025-0.007-0.010-0.014-0.020-0.021-0.030-0.006-0.008-0.011-0.017-0.016-0.025-0.006-0.010-0.013-0.020-0.019-0.030-0.005-0.008-0.009-0.016-0.014-0.025-0.006-0.010-0.012-0.021-0.017-0.031-0.004-0.008-0.008-0.016-0.012-0.025-0.005-0.011-0.010-0.021-0.015-0.032-0.004-0.008-0.007-0.016-0.010-0.024-0.004-0.011-0.009-0.021-0.013-0.032-0.003-0.008-0.005-0.016-0.008-0.024-0.004-0.011-0.007-0.022-0.011-0.032-0.002-0.008-0.004-0.016-0.006-0.024-0.003-0.011-0.006-0.022-0.008-0.033-0.002-0.008-0.003-0.016-0.004-0.024-0.002-0.011-0.005-0.023-0.006-0.034-0.001-0.008-0.002-0.015-0.003-0.023-0.001-0.012-0.003-0.024-0.004-0.035-0.001-0.019-0.002-0.038-0.002-0.056-0-1.26 3.019-2.281 6.744-2.281zM27.902 14.64c-0.187 1.569-0.946 3.386-2.151 4.701-1.158 1.264-2.621 2.040-4.46 1.938 0.268-2.879 0.803-5.76 1.119-8.443 2.596-1.659 4.043-1.673 4.676-1.295 0.641 0.382 1.002 1.531 0.815 3.1z"></path>
</svg>