<?xml version='1.0' encoding='iso-8859-1'?>
<!-- Uploaded to: SVG Repo, www.svgrepo.com, Generator: SVG Repo Mixer Tools -->
<svg fill="#2ec4b6" height="800px" width="800px" version="1.1" xmlns="http://www.w3.org/2000/svg" viewBox="0 0 445 445" xmlns:xlink="http://www.w3.org/1999/xlink" enable-background="new 0 0 445 445">
  <g>
    <path d="m89.398,267.5h36.741c2.595,14.72 3.86,28.68 3.86,42.5 0,4.143 3.357,7.5 7.5,7.5h170c4.143,0 7.5-3.357 7.5-7.5 0-42.884 11.961-79.202 24.624-117.654 12.477-37.883 25.377-77.056 25.377-122.346 0-4.143-3.357-7.5-7.5-7.5h-41.622c-4.143,0-7.5,3.357-7.5,7.5s3.357,7.5 7.5,7.5h34c-1.288,39.662-12.584,73.965-24.502,110.154-11.782,35.776-23.942,72.702-25.259,114.846h-155.233c-0.44-14.247-2.142-28.701-5.161-43.957-0.695-3.512-3.776-6.043-7.357-6.043h-42.968c-19.365,0-37.571-7.541-51.266-21.235-13.693-13.693-21.234-31.899-21.234-51.265-0.001-19.365 7.54-37.572 21.233-51.265 13.693-13.694 31.9-21.235 51.267-21.235 2.15,0 4.197-0.923 5.621-2.534 1.424-1.612 2.087-3.757 1.821-5.891-0.915-7.368-1.483-14.487-1.718-21.575h190.755c4.143,0 7.5-3.357 7.5-7.5s-3.357-7.5-7.5-7.5h-198.377c-4.143,0-7.5,3.357-7.5,7.5 0,7.608 0.354,15.158 1.078,22.888-20.231,1.896-39.004,10.691-53.554,25.24-16.526,16.527-25.627,38.5-25.626,61.872 2.22045e-16,23.373 9.102,45.346 25.628,61.872 16.528,16.526 38.5,25.628 61.872,25.628z"/>
    <path d="m102.088,128.315c-0.785-3.403-3.815-5.815-7.309-5.815h-5.383c-15.358,0-29.798,5.981-40.658,16.841-10.859,10.86-16.84,25.3-16.84,40.659s5.981,29.799 16.842,40.659c10.862,10.861 25.301,16.841 40.658,16.841h35.655c2.351,0 4.565-1.103 5.983-2.978 1.417-1.876 1.873-4.308 1.232-6.569-3.873-13.652-8.33-27.192-12.641-40.286-6.329-19.228-12.874-39.11-17.539-59.352zm-12.69,94.185c-11.352,0-22.024-4.421-30.052-12.448-8.027-8.026-12.448-18.699-12.448-30.052s4.42-22.025 12.447-30.052c7.9-7.901 18.364-12.309 29.517-12.445 4.664,18.849 10.682,37.125 16.519,54.854 3.246,9.862 6.577,19.98 9.654,30.143h-25.637z"/>
    <path d="m158.372,280.825c0.421,3.8 3.632,6.675 7.454,6.675h113.349c3.822,0 7.033-2.875 7.454-6.675 3.917-35.365 14.381-67.137 24.501-97.863 5.649-17.157 9.968-33.867 14.257-50.899 0.684-2.714-0.2-5.581-2.292-7.439-2.092-1.859-5.046-2.397-7.657-1.398-7.083,2.706-12.122,5.106-16.171,7.035-8.994,4.284-13.099,6.24-28.338,6.24-10.097,0-14.672-2.645-20.464-5.993-6.492-3.753-13.851-8.007-27.971-8.007s-21.478,4.254-27.969,8.007c-5.791,3.349-10.365,5.993-20.46,5.993-15.236,0-19.341-1.955-28.334-6.24-4.049-1.929-9.088-4.329-16.17-7.035-2.612-0.999-5.566-0.461-7.657,1.398-2.092,1.858-2.976,4.727-2.292,7.439 4.456,17.69 8.605,33.731 14.261,50.904 10.119,30.728 20.583,62.502 24.499,97.858zm-19.093-137.023c9.73,4.636 16.159,7.698 34.786,7.698 14.119,0 21.477-4.254 27.968-8.007 5.791-3.349 10.365-5.993 20.461-5.993 10.097,0 14.671,2.645 20.463,5.993 6.492,3.753 13.851,8.007 27.972,8.007 18.629,0 25.059-3.063 34.79-7.698 0.443-0.212 0.894-0.427 1.353-0.645-3.091,11.845-6.279,23.24-10.189,35.113-9.731,29.548-19.773,60.038-24.346,94.229h-100.072c-4.571-34.182-14.614-64.677-24.346-94.229-3.908-11.866-7.099-23.264-10.19-35.112 0.458,0.218 0.907,0.433 1.35,0.644z"/>
    <path d="m437.5,332.5h-430c-4.143,0-7.5,3.357-7.5,7.5s3.357,7.5 7.5,7.5h4.342l4.326,15.138c3.182,11.137 14.748,19.862 26.332,19.862h360c11.584,0 23.15-8.725 26.333-19.862l4.325-15.138h4.342c4.143,0 7.5-3.357 7.5-7.5s-3.357-7.5-7.5-7.5zm-23.09,26.017c-1.344,4.701-7.021,8.983-11.91,8.983h-360c-4.89,0-10.566-4.282-11.909-8.983l-3.148-11.017h390.114l-3.147,11.017z"/>
  </g>
</svg>